<svg width="200" height="400" viewBox="-100 -10 400 400" fill="none" xmlns="http://www.w3.org/2000/svg" preserveAspectRatio="true">
<path fill-rule="evenodd" clip-rule="evenodd" d="M74.2403 15.7088C74.2403 8.62819 78.6415 3.07021 85.9823 0.878955C89.8924 -0.28797 91.1542 -0.291175 94.344 0.858659C99.7268 2.7989 102.821 5.24277 104.929 9.21886C105.871 10.9951 106.076 12.294 106.072 16.457C106.068 20.7663 105.884 21.8441 104.848 23.6097C103.176 26.4594 100.081 29.4721 97.6708 30.5963L95.6625 31.5325V36.723C95.6625 39.5781 95.8248 42.0759 96.0229 42.2735C96.2216 42.4711 99.8098 39.2668 103.997 35.1529C108.185 31.0385 111.971 27.6723 112.412 27.6723C112.853 27.6723 113.605 26.8509 114.082 25.8469C117.141 19.4189 125.798 18.9633 129.502 25.0356C130.732 27.0544 130.838 32.0462 129.67 33.0129C129.228 33.3787 128.867 33.9876 128.867 34.3657C128.867 34.7443 127.76 35.5881 126.409 36.2408C124.374 37.2224 123.405 37.3708 120.791 37.0985L117.632 36.769L104.988 49.2756C96.2066 57.9611 92.4722 61.9969 92.7673 62.4851C93.2948 63.3583 102.67 75.3715 103.11 75.7378C103.286 75.8847 105.229 78.1678 107.426 80.8114C109.624 83.455 111.792 86.0041 112.245 86.4762C112.698 86.9483 114.631 89.1112 116.541 91.2827C125.768 101.772 139.711 115.655 148.129 122.735C149.701 124.057 151.399 125.526 151.903 125.999C152.406 126.472 155.081 128.599 157.846 130.725C164.752 136.034 164.774 136.081 162.532 140.663C160.613 144.585 159.245 145.476 157.624 143.859C157.167 143.403 156.637 143.03 156.447 143.03C155.94 143.03 148.446 137.132 148.236 136.567C148.138 136.303 147.829 136.087 147.551 136.087C147.104 136.087 145.136 134.512 138.433 128.789C136.008 126.719 114.6 105.416 111.974 102.459C110.809 101.147 107.686 97.5419 105.035 94.4481C102.384 91.3538 99.6968 88.2215 99.0643 87.4872C95.9565 83.8801 91.3165 78.3083 88.7228 75.0702C87.1349 73.0878 85.6674 71.4653 85.4618 71.4653C85.0901 71.4653 84.1288 72.4875 77.4537 79.9804C75.539 82.1295 73.6876 84.1835 73.3395 84.545C72.9914 84.9061 71.6932 86.3768 70.4545 87.8129C60.6624 99.1644 46.8681 112.914 35.9482 122.208C34.4754 123.461 33.1901 124.693 33.0921 124.946C32.9935 125.199 32.572 125.406 32.1548 125.406C31.7371 125.406 31.396 125.589 31.396 125.813C31.396 126.356 25.7367 130.746 25.0362 130.746C24.7342 130.746 24.2945 131.052 24.0589 131.427C23.8232 131.801 22.9074 132.577 22.0238 133.153C17.9064 135.834 16.5359 136.128 15.2104 134.618C14.1532 133.413 12.116 128.752 12.116 127.538C12.116 126.726 15.2361 123.803 16.1027 123.803C16.4867 123.803 21.9252 120.037 22.2915 119.517C22.4388 119.308 24.1113 117.899 26.0088 116.385C34.2312 109.825 47.6051 96.8204 47.3432 95.6396C47.0465 94.3045 38.0293 85.7488 35.8212 84.7079C34.5734 84.1194 32.7477 82.8115 31.7639 81.8021C30.1631 80.1582 29.822 80.0242 28.5088 80.5225C25.0802 81.8224 20.9949 80.2565 18.8104 76.8054C15.3229 71.2966 19.2849 63.9885 25.7598 63.9885C29.7941 63.9885 32.0933 65.7316 33.7444 70.0437C34.4213 71.8109 34.996 72.5335 35.7248 72.5335C36.2893 72.5335 36.7515 72.7476 36.7515 73.0098C36.7515 73.2715 37.3679 73.64 38.1215 73.8285C40.4142 74.4027 44.7934 77.7785 50.0558 83.0294C52.8074 85.775 55.2244 88.0212 55.4263 88.0212C55.6282 88.0212 56.2494 87.4808 56.8064 86.8196C57.3639 86.1584 59.3315 83.9244 61.1787 81.8539L64.5377 78.0904L59.1907 72.5575C55.1403 68.3656 53.6938 67.1741 53.2241 67.6425C52.3554 68.5088 48.4694 68.4137 46.5939 67.4802C45.7306 67.0513 44.3082 65.9538 43.432 65.0422C42.0149 63.5671 41.8393 63.0186 41.8393 60.0685C41.8393 57.4094 42.0862 56.4379 43.085 55.1636C45.9646 51.4898 50.9207 50.1061 53.984 52.1206C55.8542 53.351 57.6413 55.6454 58.1201 57.4302C58.3777 58.3894 59.0016 58.9875 60.0331 59.2626C60.875 59.4869 62.2776 60.4621 63.1506 61.4292C64.023 62.3959 66.1679 64.6849 67.9165 66.5151L71.0961 69.8428L72.2668 68.6252C78.6844 61.9494 84.5733 55.091 85.1217 53.6538C85.5989 52.4031 85.4741 32.2342 84.9841 31.5325C84.9072 31.4219 84.6451 31.3178 84.2783 31.1721C83.8585 31.0053 83.3014 30.784 82.7272 30.4361C77.7091 27.3967 74.2403 21.3773 74.2403 15.7088ZM86.7273 21.13C83.2339 18.7609 83.2318 13.8801 86.723 11.7257C89.8598 9.79031 94.0253 10.7142 95.82 13.744C99.0643 19.2218 92.1702 24.822 86.7273 21.13ZM53.6193 33.164C54.646 30.4312 55.8237 29.0208 57.7656 28.1967C58.4318 27.9142 60.4289 27.7487 62.2032 27.8288C65.8948 27.9954 67.7858 29.0913 69.1086 31.8294C70.0491 33.7761 70.2563 38.6398 69.4203 39.1546C68.0616 39.992 69.2045 42.8236 72.2229 46.0974C73.0353 46.9786 73.701 48.0579 73.7021 48.4953C73.7048 49.2329 66.9959 55.9807 66.2659 55.9749C65.6805 55.9706 62.2155 52.5451 61.1846 50.9515C60.5355 49.9485 60.1681 48.3859 60.1488 46.5455C60.1215 43.9409 60.0128 43.6941 58.8961 43.6941C57.2081 43.6941 54.0703 40.4145 53.2975 37.8424C52.7571 36.0437 52.8064 35.327 53.6193 33.164ZM23.0847 54.1425C19.9469 50.0404 21.192 44.304 25.7833 41.7112C28.4852 40.1853 31.0816 40.1827 33.806 41.7026C36.1222 42.9945 38.3582 46.5962 38.3582 49.0347C38.3582 51.6767 36.1308 55.0846 33.5585 56.3781C29.4862 58.4262 25.7512 57.6289 23.0847 54.1425ZM142.296 43.9115C143.01 43.1505 144.318 42.2084 145.201 41.819C152.801 38.4694 160.498 47.2259 155.894 53.9828C154.336 56.2686 151.1 58.1138 148.648 58.1138C147.662 58.1138 145.975 57.4489 144.583 56.5116C142.254 54.9447 142.056 54.9094 135.541 54.9094H128.88L126.342 57.5909C121.365 62.8498 120.973 63.7567 120.537 71.044L120.148 77.5419L117.411 74.5949C113.358 70.2306 111.899 68.5072 111.281 67.3568C110.504 65.909 111.359 62.3318 113.475 58.1741C115.681 53.8376 123.189 46.1348 125.697 45.6349C126.63 45.4485 130.455 45.2963 134.196 45.2963C140.825 45.2963 141.031 45.2611 142.296 43.9115ZM128.779 69.062C128.896 67.2745 131.255 64.2961 133.214 63.4646C133.916 63.1665 135.921 63.0234 137.67 63.1468C140.488 63.346 141.056 63.589 142.663 65.2878C143.66 66.3415 144.705 67.9827 144.985 68.9339C145.584 70.9649 145.145 74.4422 144.079 76.1197C143.551 76.9501 143.327 79.0511 143.327 83.1752C143.327 86.196 143.233 87.6909 143.757 88.9228C144.398 90.4286 145.963 91.5412 149.754 94.5672C151.963 96.3307 153.891 97.9292 154.038 98.1187C154.427 98.6192 158.914 102.081 159.987 102.708C164.765 105.501 171.257 110.319 171.489 111.244C171.78 112.401 170.414 117.138 169.445 118.329C168.433 119.575 166.683 119.186 162.644 116.822C159.998 115.273 150.551 108.65 150.378 108.223C150.28 107.98 149.953 107.782 149.651 107.782C149.008 107.782 142.595 102.862 140.645 100.873C139.907 100.12 138.039 98.46 136.495 97.1841L133.687 94.8647L133.683 90.2413C133.681 87.6987 133.524 83.9736 133.333 81.9644C133.044 78.9112 132.795 78.2233 131.819 77.7801C129.561 76.7541 128.479 73.6502 128.779 69.062ZM153.506 78.6666C153.502 75.4927 154.737 72.9335 156.984 71.4589C159.143 70.0415 163.891 70.0164 166.012 71.4109C168.47 73.0264 169.562 75.1322 169.565 78.2618C169.572 83.3941 166.598 86.4121 161.536 86.4121C156.54 86.4121 153.512 83.4919 153.506 78.6666ZM80.8892 92.5608C82.0423 91.0921 83.3678 89.578 83.8348 89.1962C84.077 88.9981 84.2367 88.8353 84.4209 88.8001C84.9407 88.7006 85.6549 89.6167 88.9681 93.6198C90.1463 95.0436 91.4718 96.6009 91.9136 97.081C92.3555 97.5606 94.1538 99.6237 95.9099 101.666C97.6655 103.708 99.8345 106.124 100.73 107.034C102.808 109.15 104.959 111.603 105.495 112.467C106.006 113.292 103.724 116.292 95.3947 125.745C95.1002 126.079 93.7822 127.642 92.4658 129.217C89.7687 132.444 74.9189 147.375 70.6323 151.169C64.8424 156.295 49.0826 168.13 48.0485 168.13C47.7754 168.13 47.4717 168.334 47.3732 168.584C47.0438 169.422 38.6618 174.005 37.4595 174.005C36.1045 174.005 34.0919 171.617 32.7836 168.457C31.645 165.706 32.3932 164.698 37.6411 161.916C38.9355 161.229 40.2894 160.416 40.6493 160.109C41.0092 159.801 44.893 156.914 49.2803 153.693C60.8954 145.165 64.6271 141.979 74.2559 132.369C80.4238 126.213 83.3265 123.075 87.3614 118.203C88.5396 116.78 89.9417 115.159 90.4778 114.599C91.423 113.612 91.3888 113.502 89.3071 110.816C87.0352 107.884 85.0435 105.645 84.7067 105.645C83.8701 105.645 82.8092 106.424 82.8092 107.038C82.8092 107.447 82.6196 107.782 82.3882 107.782C82.1569 107.782 81.2036 108.773 80.2701 109.984C78.5376 112.231 67.4109 124.146 62.916 128.567C56.0197 135.349 43.6768 145.835 38.348 149.438C37.6962 149.879 36.6106 150.66 35.9358 151.174C35.2605 151.688 34.5777 152.109 34.4176 152.109C34.258 152.109 33.054 152.831 31.7425 153.714C28.3529 155.995 26.4796 156.268 24.9918 154.698C23.0065 152.603 21.2975 148.784 21.7763 147.512C22.0093 146.894 23.4912 145.661 25.0689 144.773C28.5361 142.821 36.4136 137.25 36.6621 136.573C36.7606 136.305 37.1821 136.087 37.5993 136.087C38.017 136.087 38.3582 135.898 38.3582 135.667C38.3582 135.436 39.2868 134.535 40.4217 133.664C45.1276 130.055 48.6751 126.799 57.6044 117.897C67.2631 108.268 68.7905 106.655 74.7753 99.7695C76.6894 97.567 78.3764 95.645 78.5242 95.4981C78.672 95.3512 79.7362 94.0294 80.8892 92.5608ZM11.9425 93.145C12.7121 92.5853 14.0906 91.9418 15.0053 91.7148C19.1773 90.6803 23.2475 92.7044 24.9591 96.665C25.5536 98.0413 26.0404 99.4389 26.0404 99.7706C26.0404 100.102 25.5536 101.5 24.9591 102.876C23.4023 106.479 21.2467 107.782 16.8417 107.782C13.7735 107.782 13.1234 107.597 11.6693 106.313C9.94271 104.788 8.36711 101.672 8.36711 99.7818C8.36711 98.0525 10.4108 94.2591 11.9425 93.145ZM108.385 126.921C108.614 126.822 109.73 125.599 110.866 124.204C112.001 122.808 113.31 121.667 113.774 121.667C114.239 121.667 116.218 123.29 118.172 125.272C123.217 130.389 130.798 137.543 134.163 140.359C135.742 141.681 137.425 143.138 137.904 143.597C138.383 144.055 139.98 145.365 141.452 146.507C142.925 147.649 144.371 148.849 144.666 149.174C144.96 149.5 146.632 150.814 148.38 152.095C154.189 156.352 154.208 156.388 152.588 159.968C151.447 162.488 149.81 164.392 148.786 164.392C148.357 164.392 147.134 163.863 146.068 163.217C143.858 161.877 134.627 155.346 134.222 154.835C134.075 154.649 132.629 153.425 131.009 152.113C127.021 148.886 124.197 146.26 114.823 137.057C107.776 130.141 106.901 129.09 107.401 128.158C107.712 127.576 108.155 127.02 108.385 126.921ZM131.311 172.67C131.807 170.614 132.318 168.752 132.446 168.531C132.842 167.85 133.388 168.075 135.088 169.624C135.99 170.446 137.972 172.029 139.492 173.141C141.012 174.254 142.253 175.204 142.25 175.252C142.198 176.044 139.183 184.447 138.528 185.628C138.245 186.138 137.387 187.877 136.622 189.493C135.857 191.108 134.766 193.151 134.197 194.032C133.628 194.914 132.88 196.175 132.535 196.836C132.191 197.497 131.706 198.038 131.458 198.038C131.212 198.038 131.008 198.339 131.006 198.705C131.002 199.832 122.558 208.236 118.401 211.252C116.623 212.541 113.014 214.4 107.712 216.758C103.892 218.458 97.8379 219.399 90.8757 219.377C86.881 219.364 82.6485 219.14 81.4703 218.878C76.4565 217.765 74.4074 217.194 72.7675 216.451C71.81 216.017 70.1235 215.249 69.0187 214.743C62.0843 211.572 52.3185 202.953 48.8015 196.901C48.5069 196.395 47.2393 194.255 45.9839 192.146C43.537 188.034 42.9291 185.403 44.2493 184.638C45.6149 183.847 51.9179 180.948 52.2708 180.948C52.4545 180.948 53.1587 182.085 53.8357 183.475C56.2066 188.341 60.3202 192.777 64.4006 194.867C66.4753 195.929 67.736 196.169 71.2605 196.169C75.2279 196.169 75.7838 196.031 78.091 194.473C82.5837 191.439 84.1417 190.303 84.5112 189.79C84.7109 189.514 87.1616 189.233 89.9567 189.167C95.4772 189.036 97.4705 189.694 100.931 192.792C103.985 195.526 105.786 196.163 110.39 196.137C115.471 196.108 117.81 195.105 121.849 191.219C126.368 186.872 129.244 181.234 131.311 172.67ZM0.597656 269.744C0.597656 253.033 14.144 239.487 30.8542 239.487H147.671C164.381 239.487 177.928 253.033 177.928 269.744C177.928 286.454 164.381 300 147.671 300H30.8542C14.144 300 0.597656 286.454 0.597656 269.744ZM72.2125 258.072C73.8109 258.072 75.1067 256.776 75.1067 255.178C75.1067 253.58 73.8109 252.284 72.2125 252.284C70.6142 252.284 69.3184 253.58 69.3184 255.178C69.3184 256.776 70.6142 258.072 72.2125 258.072ZM45.7947 284.474C45.1063 284 44.9453 283.059 45.4042 282.36L46.1009 281.3C46.6124 280.521 47.6897 280.349 48.4969 280.814C50.4462 281.938 53.2233 282.966 55.553 282.966C59.2554 282.966 60.4895 281.477 60.4895 279.882C60.4895 277.436 57.7039 276.869 54.6362 276.266C54.4757 276.234 54.3046 276.201 54.1244 276.167L54.1238 276.167C50.9015 275.547 44.7985 274.374 44.7985 268.431C44.7985 262.334 50.2639 260.703 54.601 260.703C58.2499 260.703 60.7257 261.657 62.9734 263.142C63.6882 263.614 63.8269 264.59 63.3252 265.284L62.4149 266.544C61.9129 267.239 60.952 267.397 60.202 266.982C58.3776 265.972 56.3041 265.312 54.0721 265.312C52.1327 265.312 49.735 265.914 49.735 267.935C49.735 270.265 52.8911 270.924 55.5743 271.483L55.7293 271.516C56.0159 271.575 56.3321 271.632 56.6702 271.694C59.9937 272.301 65.426 273.292 65.426 279.599C65.426 284.952 61.4415 287.539 55.6235 287.539C51.0439 287.539 48.2149 286.142 45.7947 284.474ZM74.8295 262.672C74.8295 261.8 74.1228 261.093 73.2509 261.093H71.4717C70.5998 261.093 69.8931 261.8 69.8931 262.672V285.465C69.8931 286.336 70.5998 287.043 71.4717 287.043H73.2509C74.1228 287.043 74.8295 286.336 74.8295 285.465V262.672ZM89.8324 278.783C90.3381 278.783 90.8131 279.025 91.1101 279.435L96.1589 286.392C96.4558 286.801 96.9309 287.043 97.4365 287.043H99.3884C100.684 287.043 101.428 285.568 100.657 284.526L97.4392 280.176C96.779 279.284 97.2351 277.975 98.1264 277.313C100.177 275.79 101.427 273.024 101.427 270.027C101.427 264.78 97.7952 261.093 92.5414 261.093H82.4135C81.5416 261.093 80.8349 261.8 80.8349 262.672V285.465C80.8349 286.336 81.5416 287.043 82.4135 287.043H84.1575C85.0293 287.043 85.7361 286.336 85.7361 285.465V280.362C85.7361 279.49 86.4429 278.783 87.3147 278.783H89.8324ZM85.7361 267.068C85.7361 266.196 86.4429 265.489 87.3147 265.489H91.3778C95.0096 265.489 96.5258 267.474 96.5258 269.991C96.5258 272.189 95.5385 274.458 91.3778 274.458H87.3147C86.4429 274.458 85.7361 273.751 85.7361 272.88V267.068ZM118.793 261.093C117.921 261.093 117.214 261.8 117.214 262.672V277.826C117.214 279.776 116.615 283.037 112.595 283.037C111.049 283.037 110.017 282.349 109.322 281.502C108.771 280.831 107.865 280.455 107.073 280.812L105.457 281.541C104.666 281.898 104.299 282.838 104.777 283.563C106.426 286.067 109.164 287.539 112.595 287.539C118.307 287.539 122.151 283.888 122.151 277.826V262.672C122.151 261.8 121.444 261.093 120.572 261.093H118.793ZM132.989 262.672C132.989 261.8 132.282 261.093 131.41 261.093H129.631C128.759 261.093 128.052 261.8 128.052 262.672V285.465C128.052 286.336 128.759 287.043 129.631 287.043H131.41C132.282 287.043 132.989 286.336 132.989 285.465V262.672ZM119.571 258.072C121.169 258.072 122.465 256.776 122.465 255.178C122.465 253.58 121.169 252.284 119.571 252.284C117.972 252.284 116.677 253.58 116.677 255.178C116.677 256.776 117.972 258.072 119.571 258.072ZM130.621 258.072C132.219 258.072 133.515 256.776 133.515 255.178C133.515 253.58 132.219 252.284 130.621 252.284C129.023 252.284 127.727 253.58 127.727 255.178C127.727 256.776 129.023 258.072 130.621 258.072Z" fill="var(--vscode-tab-activeForeground, #292929)"/>
</svg>
