<svg width="149" height="200" viewBox="0 0 149 200" fill="none" xmlns="http://www.w3.org/2000/svg">
<path fill-rule="evenodd" clip-rule="evenodd" d="M70.7924 0.801318C64.0968 2.79902 60.0826 7.86607 60.0826 14.3212C60.0826 19.4891 63.2464 24.9768 67.8234 27.7477C68.8048 28.3422 69.7314 28.5311 69.8819 28.7473C70.3288 29.387 70.4426 47.7744 70.0074 48.9147C69.5072 50.2249 64.1359 56.4775 58.2825 62.5636L57.2147 63.6737L54.3146 60.6399C52.7197 58.9714 50.7634 56.8846 49.9677 56.0033C49.1715 55.1215 47.8921 54.2325 47.1243 54.028C46.1835 53.7772 45.6144 53.2319 45.3794 52.3575C44.9427 50.7303 43.3127 48.6386 41.6069 47.5168C38.8128 45.6803 34.2925 46.9418 31.6659 50.2911C30.7549 51.4528 30.5298 52.3385 30.5298 54.7627C30.5298 57.4523 30.69 57.9523 31.9825 59.2971C32.7816 60.1282 34.079 61.1288 34.8664 61.5197C36.5771 62.3708 40.1215 62.4575 40.9138 61.6678C41.3422 61.2408 42.6615 62.327 46.3559 66.1486L51.2328 71.1928L48.1691 74.6239C46.4844 76.5115 44.6897 78.5482 44.1812 79.151C43.6732 79.7537 43.1065 80.2465 42.9224 80.2465C42.7382 80.2465 40.5337 78.1986 38.024 75.6955C33.2242 70.9084 29.2299 67.8308 27.1388 67.3074C26.4515 67.1355 25.8892 66.7996 25.8892 66.561C25.8892 66.3219 25.4677 66.1267 24.9528 66.1267C24.288 66.1267 23.7639 65.4679 23.1464 63.8568C21.6405 59.9257 19.5434 58.3365 15.8637 58.3365C9.95807 58.3365 6.34433 64.999 9.52528 70.0213C11.5178 73.1676 15.2439 74.5951 18.3711 73.4101C19.5688 72.9558 19.88 73.078 21.34 74.5766C22.2374 75.4969 23.9026 76.6892 25.0407 77.2258C27.0547 78.1747 35.2792 85.9747 35.5498 87.1919C35.7887 88.2684 23.5905 100.125 16.0909 106.105C14.3602 107.485 12.8347 108.77 12.7004 108.96C12.3663 109.434 7.40579 112.868 7.05555 112.868C6.26519 112.868 3.41933 115.532 3.41933 116.272C3.41933 117.38 5.2775 121.629 6.24175 122.727C7.45073 124.104 8.70073 123.836 12.4561 121.392C13.2621 120.867 14.0974 120.159 14.3123 119.818C14.5273 119.477 14.9283 119.198 15.2038 119.198C15.8427 119.198 21.0045 115.195 21.0045 114.7C21.0045 114.496 21.3156 114.329 21.6966 114.329C22.0772 114.329 22.4616 114.14 22.5515 113.909C22.6409 113.679 23.8132 112.556 25.1565 111.413C35.1165 102.941 47.6982 90.4054 56.6295 80.0566C57.7594 78.7473 58.9434 77.4064 59.2609 77.0773C59.5784 76.7477 61.2671 74.8751 63.0134 72.9159C69.1018 66.0848 69.9786 65.1529 70.3176 65.1529C70.5052 65.1529 71.8436 66.6321 73.2919 68.4394C75.6576 71.3914 79.8898 76.4711 82.7244 79.7596C83.3013 80.429 85.752 83.2846 88.1699 86.1057C90.5879 88.9262 93.4362 92.2127 94.4991 93.409C96.8946 96.1044 116.42 115.526 118.632 117.413C124.747 122.631 126.541 124.066 126.949 124.066C127.203 124.066 127.484 124.264 127.574 124.505C127.765 125.019 134.6 130.396 135.063 130.396C135.236 130.396 135.719 130.736 136.136 131.152C137.615 132.626 138.863 131.814 140.613 128.239C142.658 124.062 142.638 124.019 136.339 119.179C133.817 117.24 131.377 115.301 130.918 114.87C130.459 114.438 128.91 113.099 127.476 111.894C119.798 105.44 107.08 92.7829 98.6648 83.2199C96.9224 81.2402 95.1595 79.2683 94.7468 78.8379C94.3335 78.4075 92.3557 76.0836 90.3515 73.6735C88.3468 71.2634 86.5751 69.1819 86.4143 69.048C86.0133 68.714 77.462 57.7619 76.9809 56.9659C76.7117 56.5209 80.1179 52.8414 88.1269 44.9232L99.6599 33.5212L102.541 33.8216C104.925 34.0699 105.809 33.9346 107.665 33.0397C108.898 32.4447 109.907 31.6754 109.907 31.3302C109.907 30.9855 110.237 30.4304 110.64 30.0969C111.705 29.2157 111.608 24.6647 110.486 22.8243C107.108 17.2883 99.2119 17.7037 96.4222 23.5639C95.9865 24.4792 95.3012 25.228 94.8987 25.228C94.4967 25.228 91.0431 28.2969 87.2237 32.0479C83.4043 35.7984 80.1316 38.7197 79.9503 38.5396C79.7696 38.3594 79.6216 36.0822 79.6216 33.4793V28.7473L81.4534 27.8938C83.652 26.8689 86.4744 24.1223 87.9994 21.5243C88.9442 19.9146 89.1122 18.9321 89.1161 15.0034C89.1195 11.2081 88.9324 10.024 88.0737 8.40457C86.1511 4.77969 83.3286 2.55168 78.419 0.782815C75.5096 -0.265456 74.3587 -0.262534 70.7924 0.801318ZM71.468 10.69C68.2836 12.6541 68.2855 17.1038 71.4719 19.2636C76.4362 22.6295 82.7244 17.524 79.7652 12.53C78.1283 9.76786 74.329 8.92554 71.468 10.69ZM45.0561 25.7062C43.2848 26.4574 42.2107 27.7433 41.2743 30.2347C40.5328 32.2066 40.4878 32.86 40.9807 34.4999C41.6856 36.8447 44.5476 39.8347 46.0872 39.8347C47.1057 39.8347 47.2049 40.0596 47.2298 42.4342C47.2474 44.112 47.5825 45.5367 48.1745 46.451C49.1148 47.9039 52.2752 51.0268 52.8091 51.0307C53.4749 51.0361 59.5941 44.8842 59.5916 44.2118C59.5907 43.8131 58.9835 42.8291 58.2425 42.0257C55.4894 39.0411 54.447 36.4596 55.6863 35.6961C56.4488 35.2268 56.2597 30.7927 55.402 29.018C54.1954 26.5217 52.4706 25.5226 49.1036 25.3707C47.4852 25.2977 45.6637 25.4486 45.0561 25.7062ZM15.8852 38.0269C11.6975 40.3907 10.5618 45.6204 13.4238 49.3602C15.8559 52.5386 19.2626 53.2655 22.9769 51.3983C25.3231 50.2191 27.3547 47.1122 27.3547 44.7036C27.3547 42.4804 25.3153 39.1969 23.2026 38.0191C20.7177 36.6334 18.3496 36.6358 15.8852 38.0269ZM124.806 38.1252C124 38.4802 122.807 39.339 122.156 40.0329C121.002 41.2632 120.814 41.2954 114.768 41.2954C111.355 41.2954 107.867 41.4341 107.016 41.6041C104.729 42.0598 97.8803 49.0822 95.8678 53.0357C93.9378 56.8261 93.1587 60.0873 93.8675 61.4073C94.4307 62.456 95.7618 64.0272 99.4586 68.0061L101.955 70.6927L102.31 64.7688C102.707 58.1252 103.065 57.2984 107.604 52.504L109.919 50.0594H115.994C121.937 50.0594 122.118 50.0915 124.241 51.52C125.511 52.3745 127.05 52.9807 127.949 52.9807C130.186 52.9807 133.138 51.2985 134.559 49.2146C138.758 43.0545 131.738 35.0715 124.806 38.1252ZM113.872 57.8588C112.086 58.6169 109.934 61.3323 109.827 62.9619C109.553 67.1448 110.541 69.9746 112.6 70.9099C113.49 71.314 113.717 71.9411 113.981 74.7246C114.154 76.5563 114.298 79.9524 114.3 82.2705L114.303 86.4854L116.864 88.6C118.273 89.7632 119.977 91.2764 120.65 91.9634C122.429 93.7766 128.278 98.2613 128.864 98.2613C129.139 98.2613 129.438 98.4425 129.528 98.6635C129.685 99.053 138.302 105.091 140.715 106.503C144.399 108.659 145.995 109.013 146.918 107.877C147.802 106.791 149.048 102.473 148.783 101.418C148.571 100.575 142.649 96.1823 138.291 93.6359C137.313 93.0643 133.22 89.9083 132.865 89.4521C132.731 89.2792 130.973 87.8219 128.958 86.2142C122.672 81.1988 123.096 81.9491 123.096 75.8284C123.096 72.0687 123.3 70.1532 123.782 69.3961C124.754 67.8668 125.154 64.6967 124.609 62.8451C124.353 61.9779 123.4 60.4817 122.49 59.5211C121.025 57.9723 120.507 57.7507 117.937 57.5691C116.341 57.4567 114.512 57.5871 113.872 57.8588ZM135.552 65.1471C133.503 66.4914 132.377 68.8245 132.38 71.7181C132.386 76.1172 135.147 78.7795 139.704 78.7795C144.322 78.7795 147.034 76.0281 147.028 71.3491C147.024 68.4959 146.028 66.5761 143.787 65.1032C141.852 63.832 137.522 63.8549 135.552 65.1471ZM68.8336 81.3176C68.4077 81.6657 67.1987 83.0461 66.147 84.385C65.0953 85.724 64.1247 86.929 63.9899 87.0629C63.8551 87.1968 62.3164 88.9491 60.5705 90.957C55.1118 97.2345 53.7187 98.7044 44.909 107.483C36.7647 115.599 33.529 118.567 29.2368 121.858C28.2017 122.652 27.3547 123.473 27.3547 123.684C27.3547 123.894 27.0435 124.066 26.6625 124.066C26.282 124.066 25.8975 124.266 25.8077 124.51C25.581 125.127 18.396 130.206 15.2336 131.985C13.7946 132.795 12.4429 133.919 12.2305 134.483C11.7938 135.642 13.3525 139.124 15.1633 141.034C16.5203 142.465 18.2289 142.216 21.3205 140.137C22.5168 139.332 23.6149 138.673 23.7605 138.673C23.9065 138.673 24.5293 138.289 25.1453 137.821C25.7608 137.353 26.7509 136.64 27.3454 136.239C32.2057 132.954 43.4636 123.394 49.7537 117.211C53.8535 113.181 64.0021 102.318 65.5823 100.269C66.4337 99.165 67.3032 98.2613 67.5142 98.2613C67.7252 98.2613 67.8982 97.9561 67.8982 97.5831C67.8982 97.0237 68.8658 96.3138 69.6288 96.3138C69.9361 96.3138 71.7527 98.3548 73.8248 101.027C75.7235 103.476 75.7548 103.577 74.8927 104.477C74.4037 104.987 73.1249 106.465 72.0502 107.762C68.37 112.204 65.7225 115.064 60.0967 120.677C51.3144 129.438 47.9107 132.343 37.3166 140.118C33.3151 143.054 29.7726 145.686 29.4444 145.967C29.1161 146.247 27.8812 146.988 26.7006 147.614C21.914 150.151 21.2316 151.069 22.2701 153.577C23.4635 156.459 25.2991 158.636 26.535 158.636C27.6316 158.636 35.2768 154.457 35.5772 153.693C35.6671 153.466 35.944 153.28 36.1931 153.28C37.1364 153.28 51.5108 142.489 56.7917 137.817C60.7015 134.358 74.2459 120.745 76.7059 117.804C77.9066 116.367 79.1087 114.943 79.3774 114.638C86.9746 106.02 89.056 103.285 88.59 102.533C88.101 101.745 86.1393 99.5092 84.2436 97.5802C83.4268 96.75 81.4485 94.5474 79.8473 92.686C78.2456 90.8241 76.6053 88.9433 76.2023 88.506C75.7993 88.0683 74.5903 86.6486 73.5156 85.3505C69.4232 80.4081 69.6782 80.6272 68.8336 81.3176ZM6.05466 83.6138C5.22035 83.8207 3.963 84.4074 3.26106 84.9177C1.86402 85.9333 0 89.3917 0 90.9682C0 92.6913 1.4371 95.5318 3.01194 96.9224C4.33816 98.0929 4.93117 98.2613 7.72965 98.2613C11.7474 98.2613 13.7135 97.0738 15.1335 93.7893C15.6757 92.5346 16.1197 91.2604 16.1197 90.958C16.1197 90.6556 15.6757 89.3815 15.1335 88.1267C13.5723 84.516 9.85989 82.6707 6.05466 83.6138ZM93.4885 113.233C92.4529 114.505 91.4349 115.62 91.2258 115.71C91.0163 115.801 90.6123 116.308 90.328 116.838C89.8718 117.688 90.6704 118.645 97.0973 124.951C105.648 133.341 108.223 135.735 111.861 138.677C113.339 139.873 114.658 140.989 114.792 141.159C115.161 141.624 123.58 147.579 125.596 148.8C126.568 149.39 127.684 149.872 128.075 149.872C129.009 149.872 130.502 148.135 131.543 145.838C133.021 142.575 133.003 142.542 127.705 138.661C126.11 137.493 124.586 136.295 124.317 135.998C124.048 135.701 122.73 134.607 121.386 133.566C120.043 132.525 118.586 131.331 118.15 130.913C117.713 130.495 116.178 129.167 114.738 127.962C111.669 125.394 104.754 118.872 100.153 114.207C98.3703 112.4 96.5649 110.92 96.1409 110.92C95.7174 110.92 94.5235 111.961 93.4885 113.233ZM113.172 153.645C113.055 153.846 112.589 155.544 112.136 157.418C110.251 165.226 107.628 170.366 103.506 174.329C99.822 177.872 97.6889 178.786 93.0547 178.813C88.8548 178.836 87.2125 178.256 84.4272 175.763C81.2707 172.939 79.4526 172.339 74.4174 172.458C71.868 172.518 69.6327 172.774 69.4505 173.026C69.1135 173.494 67.6925 174.53 63.5947 177.296C61.4903 178.716 60.9833 178.841 57.3647 178.841C54.15 178.841 53.0001 178.623 51.1078 177.654C47.3861 175.749 43.6341 171.705 41.4716 167.269C40.8542 166.002 40.2118 164.965 40.0443 164.965C39.7224 164.965 33.9735 167.608 32.7279 168.329C31.5238 169.026 32.0782 171.425 34.3101 175.174C35.4551 177.096 36.6113 179.047 36.8799 179.509C40.0878 185.027 48.9951 192.884 55.3199 195.775C56.3276 196.236 57.8658 196.936 58.7392 197.332C60.235 198.009 62.1039 198.53 66.677 199.545C67.7516 199.783 71.6121 199.988 75.2556 200C81.6058 200.02 87.1275 199.162 90.6123 197.612C95.4482 195.463 98.7391 193.768 100.361 192.592C104.153 189.843 111.855 182.181 111.859 181.154C111.86 180.82 112.046 180.546 112.271 180.546C112.497 180.546 112.939 180.053 113.253 179.45C113.568 178.847 114.25 177.697 114.769 176.894C115.288 176.09 116.283 174.228 116.981 172.755C117.678 171.282 118.461 169.697 118.719 169.232C119.317 168.155 122.066 160.494 122.114 159.772C122.117 159.729 120.985 158.862 119.598 157.848C118.212 156.834 116.404 155.39 115.582 154.642C114.031 153.23 113.533 153.024 113.172 153.645Z" fill="#3D3933"/>
</svg>
